<?xml version="1.0" encoding="utf-8"?>
<!-- Generator: Adobe Illustrator 16.0.0, SVG Export Plug-In . SVG Version: 6.00 Build 0)  -->
<!DOCTYPE svg PUBLIC "-//W3C//DTD SVG 1.1//EN" "http://www.w3.org/Graphics/SVG/1.1/DTD/svg11.dtd">
<svg version="1.1" id="Layer_1" xmlns="http://www.w3.org/2000/svg" xmlns:xlink="http://www.w3.org/1999/xlink" x="0px" y="0px"
	 width="136.3px" height="160px" viewBox="46.9 0 136.3 160" style="enable-background:new 46.9 0 136.3 160;" xml:space="preserve"
	>
<style type="text/css">
<![CDATA[
	.st0{fill:none;stroke:#CCCCCC;stroke-width:2;stroke-miterlimit:10;}
	.st1{fill:none;stroke:#CCCCCC;stroke-width:2;}
	.st2{fill:none;stroke:#CCCCCC;}
	.st3{fill:none;stroke:#CCCCCC;stroke-miterlimit:10;}
	.st4{fill:#CCCCCC;}
]]>
</style>
<path id="iph-border" class="st1" d="M182.1,152.9c0,3.3-2.7,6-6,6h-33c-3.3,0-6-2.7-6-6v-88c0-3.3,2.7-6,6-6h33c3.3,0,6,2.7,6,6
	V152.9z"/>
<g id="iph">
	<rect id="d" x="141.1" y="72.9" class="st2" width="37" height="70"/>
	<circle id="button" class="st2" cx="159.6" cy="151.8" r="3.5"/>
	<g id="cam_1_">
		<circle id="cam" class="st4" cx="153.7" cy="66.8" r="1"/>
		<path id="cam2" class="st4" d="M166.5,66.8c0,0.6-0.4,1-1,1h-8c-0.6,0-1-0.4-1-1l0,0c0-0.6,0.4-1,1-1h8
			C166.1,65.8,166.5,66.3,166.5,66.8L166.5,66.8z"/>
	</g>
</g>
<path id="ip-border" class="st0" d="M143.1,58.9H155V9.1c0-4.4-3.6-8-8-8H56.2c-4.4,0-8,3.6-8,8v125.5c0,4.4,3.6,8,8,8h80.9V64.9
	C137.1,61.6,139.8,58.9,143.1,58.9z"/>
<g id="ip">
	<circle class="st2" cx="101.6" cy="135.1" r="3"/>
	<g id="cam_2_">
		<circle id="cam_3_" class="st2" cx="96.5" cy="8" r="0.9"/>
		<path id="cam2_1_" class="st2" d="M107.6,8c0,0.5-0.4,0.9-0.9,0.9h-6.4c-0.5,0-0.9-0.4-0.9-0.9l0,0c0-0.5,0.4-0.9,0.9-0.9h6.4
			C107.2,7,107.6,7.5,107.6,8L107.6,8z"/>
	</g>
	<path id="d_1_" class="st3" d="M143.1,58.9h1.5V15.6h-86v113h78.5V64.9C137.1,61.6,139.8,58.9,143.1,58.9z"/>
</g>
</svg>
