<?xml version="1.0" encoding="utf-8"?>
<!-- Generator: Adobe Illustrator 16.0.0, SVG Export Plug-In . SVG Version: 6.00 Build 0)  -->
<!DOCTYPE svg PUBLIC "-//W3C//DTD SVG 1.1//EN" "http://www.w3.org/Graphics/SVG/1.1/DTD/svg11.dtd">
<svg version="1.1" id="base" xmlns="http://www.w3.org/2000/svg" xmlns:xlink="http://www.w3.org/1999/xlink" x="0px" y="0px"
	 width="300.1px" height="160px" viewBox="0 0 300.1 160" style="enable-background:new 0 0 300.1 160;" xml:space="preserve">
<style type="text/css">
<![CDATA[
	.st0{fill:none;stroke:#CCCCCC;stroke-width:2;}
	.st1{fill:none;stroke:#CCCCCC;}
	.st2{fill:none;stroke:#CCCCCC;stroke-linecap:round;stroke-linejoin:round;}
	.st3{fill:#CCCCCC;stroke:#CCCCCC;}
	.st4{fill:#CCCCCC;}
]]>
</style>
<circle id="cam1" class="st1" cx="150.2" cy="6.6" r="2"/>
<circle id="cam2" class="st1" cx="150.2" cy="6.6" r="0.4"/>
<path id="bottom" class="st4" d="M3,155.5H2.2c1.6,2.2,15.2,4,31.7,4h232.6c16.5,0,30.1-1.8,31.7-4h-0.8H3z"/>
<path id="body" class="st1" d="M298.7,154.2c0,0.5-0.3,0.9-0.6,0.9H2.3c-0.3,0-0.6-0.4-0.6-0.9v-4.3c0-0.5,0.3-0.9,0.6-0.9h295.8
	c0.3,0,0.6,0.4,0.6,0.9V154.2z"/>
<path id="tach" class="st1" d="M125.2,151.1c0,2.2,0.9,4,1.9,4h46.1c1.1,0,1.9-1.8,1.9-4v-2h-50V151.1z"/>
<path id="top" class="st0" d="M260.9,143.8V10.3c0-4.8-3.9-8.7-8.8-8.7H48.2c-4.8,0-8.8,3.9-8.8,8.7v133.5c0,1.7,0.5,3.4,1.4,4.7
	h218.7C260.4,147.1,260.9,145.5,260.9,143.8z"/>
<g id="browser">
	<rect id="window" x="47.4" y="11.1" class="st1" width="205.6" height="128.4"/>
	<line id="line" class="st1" x1="47.4" y1="22.7" x2="253" y2="22.7"/>
	<circle id="b3" class="st1" cx="54.4" cy="16.8" r="1.9"/>
	<circle id="b2" class="st1" cx="60.6" cy="16.8" r="1.9"/>
	<circle id="b1" class="st1" cx="66.7" cy="16.8" r="1.9"/>
</g>
<g id="border">
	<line id="line2" class="st1" x1="47.4" y1="94.7" x2="253" y2="94.7"/>
	<rect id="path4" x="198" y="109.4" class="st1" width="34.8" height="29.8"/>
	<rect id="path3" x="149.2" y="109.4" class="st1" width="34.8" height="29.8"/>
	<rect id="path2" x="67.6" y="109.4" class="st1" width="70.3" height="29.8"/>
	<rect id="path1" x="67.6" y="34.2" class="st1" width="70.3" height="45.8"/>
</g>
<g id="text">
	<rect id="t12" x="145.7" y="42.4" class="st4" width="56.4" height="4"/>
	<rect id="t11" x="145.7" y="53.4" class="st4" width="83.3" height="0.7"/>
	<rect id="t10" x="145.7" y="58.2" class="st4" width="83.3" height="0.7"/>
	<rect id="t9" x="145.7" y="63.1" class="st4" width="83.3" height="0.7"/>
	<rect id="t8" x="145.7" y="67.9" class="st4" width="83.3" height="0.7"/>
	<rect id="t7" x="145.7" y="72.8" class="st4" width="83.3" height="0.7"/>
	<rect id="t6" x="71.4" y="115.6" class="st4" width="37.2" height="2.3"/>
	<rect id="t5" x="71.4" y="122.2" class="st4" width="55" height="0.7"/>
	<rect id="t4" x="71.4" y="125.8" class="st4" width="55" height="0.7"/>
	<rect id="t3" x="71.4" y="129.5" class="st4" width="55" height="0.7"/>
	<rect id="t2" x="71.4" y="133.1" class="st4" width="55" height="0.7"/>
	<rect id="t1" x="71.4" y="136.8" class="st4" width="55" height="0.7"/>
</g>
<g>
	<polyline id="g2" class="st2" points="149.5,136 154.8,136 156.8,129.9 159,136 160.7,136 163.7,115.7 168.2,123.7 172.2,121 
		174.6,130.2 178.2,127.8 180,130.2 183.7,130.2 	"/>
	<circle id="g1" class="st4" cx="168.3" cy="123.4" r="1.3"/>
</g>
<g id="circle">
	<path id="c2" class="st3" d="M214.5,128.4l4-11.6c-6.5-2.3-13.6,1.2-15.9,7.7c-0.9,2.6-0.9,5.4-0.1,7.9L214.5,128.4z"/>
	<path id="c1" class="st1" d="M227.8,126.3c-1.2-3.6-3.9-6.3-7.1-7.6l-4.1,11.7l-12.4,4.2c0.6,1.7,1.6,3.2,2.7,4.4h18
		C228,135.7,229.3,130.8,227.8,126.3z"/>
</g>
</svg>
